<svg width="531.275px" height="122.021240234375px" xmlns="http://www.w3.org/2000/svg" viewBox="-15.637499999999989 13.9893798828125 531.275 122.021240234375" style="background: rgba(0, 0, 0, 0);" preserveAspectRatio="xMidYMid"><defs><filter id="editing-hole" x="-100%" y="-100%" width="300%" height="300%"><feFlood flood-color="#000" result="black"></feFlood><feMorphology operator="dilate" radius="2" in="SourceGraphic" result="erode"></feMorphology><feGaussianBlur in="erode" stdDeviation="4" result="blur"></feGaussianBlur><feOffset in="blur" dx="2" dy="2" result="offset"></feOffset><feComposite operator="atop" in="offset" in2="black" result="merge"></feComposite><feComposite operator="in" in="merge" in2="SourceGraphic" result="inner-shadow"></feComposite></filter></defs><g filter="url(#editing-hole)"><g transform="translate(62.480000615119934, 104.51781272888184)"><path d="M26.05-29.57L26.05-29.57L26.05-29.57Q27.01-31.49 27.01-33.28L27.01-33.28L27.01-33.28Q27.01-35.07 26.82-36.06L26.82-36.06L26.82-36.06Q26.62-37.06 26.18-37.82L26.18-37.82L26.18-37.82Q25.22-39.49 23.30-39.49L23.30-39.49L23.30-39.49Q20.93-39.49 19.01-37.76L19.01-37.76L19.01-37.76Q16.96-35.97 16.96-33.15L16.96-33.15L16.96-33.15Q16.96-31.36 18.21-29.98L18.21-29.98L18.21-29.98Q19.46-28.61 21.38-27.33L21.38-27.33L21.38-27.33Q23.30-26.05 25.47-24.77L25.47-24.77L25.47-24.77Q27.65-23.49 29.57-21.95L29.57-21.95L29.57-21.95Q33.98-18.43 33.98-13.70L33.98-13.70L33.98-13.70Q33.98-10.50 32.29-7.78L32.29-7.78L32.29-7.78Q30.59-5.06 27.78-3.07L27.78-3.07L27.78-3.07Q21.63 1.28 13.50 1.28L13.50 1.28L13.50 1.28Q6.91 1.28 3.52-0.86L3.52-0.86L3.52-0.86Q0.13-3.01 0.13-6.27L0.13-6.27L0.13-6.27Q0.13-12.10 4.67-13.57L4.67-13.57L4.67-13.57Q5.95-14.02 7.90-14.02L7.90-14.02L7.90-14.02Q9.86-14.02 12.10-13.18L12.10-13.18L12.10-13.18Q11.07-10.56 11.07-8.19L11.07-8.19L11.07-8.19Q11.07-3.07 14.72-3.07L14.72-3.07L14.72-3.07Q17.09-3.07 19.04-4.80L19.04-4.80L19.04-4.80Q20.99-6.53 20.99-8.48L20.99-8.48L20.99-8.48Q20.99-10.43 19.74-11.84L19.74-11.84L19.74-11.84Q18.50-13.25 16.64-14.37L16.64-14.37L16.64-14.37Q14.78-15.49 12.64-16.58L12.64-16.58L12.64-16.58Q10.50-17.66 8.64-19.20L8.64-19.20L8.64-19.20Q4.29-22.72 4.29-28.35L4.29-28.35L4.29-28.35Q4.29-32 6.08-34.85L6.08-34.85L6.08-34.85Q7.87-37.70 10.75-39.62L10.75-39.62L10.75-39.62Q16.51-43.52 23.58-43.52L23.58-43.52L23.58-43.52Q30.66-43.52 34.08-41.41L34.08-41.41L34.08-41.41Q37.50-39.30 37.50-35.71L37.50-35.71L37.50-35.71Q37.50-32.58 35.07-30.59L35.07-30.59L35.07-30.59Q32.96-28.93 30.40-28.93L30.40-28.93L30.40-28.93Q27.84-28.93 26.05-29.57ZM41.63-1.92L41.63-1.92L41.63-1.92Q40.13-3.58 39.46-6.21L39.46-6.21L39.46-6.21Q38.78-8.83 38.78-13.12L38.78-13.12L38.78-13.12Q38.78-17.41 40.26-21.31L40.26-21.31L40.26-21.31Q41.73-25.22 44.42-28.03L44.42-28.03L44.42-28.03Q49.92-33.92 59.01-33.92L59.01-33.92L59.01-33.92Q62.27-33.92 64.64-32.83L64.64-32.83L75.58-33.92L70.85-8.96L70.85-8.96Q70.66-8.19 70.66-6.78L70.66-6.78L70.66-6.78Q70.66-5.38 71.52-4.48L71.52-4.48L71.52-4.48Q72.38-3.58 73.66-3.46L73.66-3.46L73.66-3.46Q73.02-1.28 70.69 0L70.69 0L70.69 0Q68.35 1.28 65.73 1.28L65.73 1.28L65.73 1.28Q63.10 1.28 61.34 0.29L61.34 0.29L61.34 0.29Q59.58-0.70 59.07-2.37L59.07-2.37L59.07-2.37Q58.05-0.77 55.87 0.26L55.87 0.26L55.87 0.26Q53.70 1.28 50.78 1.28L50.78 1.28L50.78 1.28Q47.87 1.28 45.50 0.51L45.50 0.51L45.50 0.51Q43.14-0.26 41.63-1.92ZM55.14-27.90L55.14-27.90L55.14-27.90Q54.40-26.75 53.76-24.80L53.76-24.80L53.76-24.80Q53.12-22.85 52.06-17.63L52.06-17.63L52.06-17.63Q51.01-12.42 51.01-8.70L51.01-8.70L51.01-8.70Q51.01-4.99 51.58-3.90L51.58-3.90L51.58-3.90Q52.16-2.82 53.18-2.82L53.18-2.82L53.18-2.82Q55.23-2.82 56.74-4.77L56.74-4.77L56.74-4.77Q58.24-6.72 58.82-10.18L58.82-10.18L62.21-28.93L62.21-28.93Q60.86-30.08 59.30-30.08L59.30-30.08L59.30-30.08Q57.73-30.08 56.80-29.57L56.80-29.57L56.80-29.57Q55.87-29.06 55.14-27.90ZM125.12 1.28L125.12 1.28L125.12 1.28Q117.38 1.28 117.38-4.74L117.38-4.74L117.38-4.74Q117.38-7.36 118.50-12.45L118.50-12.45L118.50-12.45Q119.62-17.54 120-19.58L120-19.58L120-19.58Q120.90-24.26 120.90-25.73L120.90-25.73L120.90-25.73Q120.90-28.99 118.46-28.99L118.46-28.99L118.46-28.99Q116.86-28.99 115.33-26.78L115.33-26.78L115.33-26.78Q113.79-24.58 113.09-20.16L113.09-20.16L109.12 0L96.64 1.28L100.10-16.13L100.10-16.13Q100.67-19.01 101.18-22.27L101.18-22.27L101.18-22.27Q101.70-25.54 101.70-26.05L101.70-26.05L101.70-26.05Q101.70-28.99 99.52-28.99L99.52-28.99L99.52-28.99Q98.05-28.99 96.45-26.82L96.45-26.82L96.45-26.82Q94.85-24.64 93.95-20.16L93.95-20.16L90.05 0L77.44 1.28L84.16-32.64L94.59-33.92L93.50-27.46L93.50-27.46Q95.17-30.91 98.24-32.42L98.24-32.42L98.24-32.42Q101.31-33.92 106.11-33.92L106.11-33.92L106.11-33.92Q108.86-33.92 110.66-32.58L110.66-32.58L110.66-32.58Q112.45-31.23 113.02-29.06L113.02-29.06L113.02-29.06Q114.11-31.30 116.90-32.61L116.90-32.61L116.90-32.61Q119.68-33.92 123.10-33.92L123.10-33.92L123.10-33.92Q126.53-33.92 128.22-33.18L128.22-33.18L128.22-33.18Q129.92-32.45 130.94-31.23L130.94-31.23L130.94-31.23Q132.67-28.99 132.67-24.90L132.67-24.90L132.67-24.90Q132.67-20.86 130.94-12.48L130.94-12.48L130.94-12.48Q130.05-8.38 130.05-6.88L130.05-6.88L130.05-6.88Q130.05-5.38 130.91-4.48L130.91-4.48L130.91-4.48Q131.78-3.58 133.06-3.46L133.06-3.46L133.06-3.46Q132.42-1.28 130.21 0L130.21 0L130.21 0Q128 1.28 125.12 1.28ZM167.81-4.38L167.81-4.38L167.81-4.38Q165.12-1.66 161.44-0.19L161.44-0.19L161.44-0.19Q157.76 1.28 154.11 1.28L154.11 1.28L154.11 1.28Q150.46 1.28 149.18 0.64L149.18 0.64L147.20 11.52L134.21 12.80L143.04-32.64L153.47-33.73L152.64-29.31L152.64-29.31Q155.33-33.86 160.90-33.86L160.90-33.86L160.90-33.86Q167.17-33.86 170.50-29.82L170.50-29.82L170.50-29.82Q173.44-26.18 173.44-20.61L173.44-20.61L173.44-20.61Q173.44-15.04 171.97-11.07L171.97-11.07L171.97-11.07Q170.50-7.10 167.81-4.38ZM153.34-22.34L149.95-3.58L149.95-3.58Q151.30-2.43 152.96-2.43L152.96-2.43L152.96-2.43Q154.62-2.43 155.58-3.07L155.58-3.07L155.58-3.07Q156.54-3.71 157.25-4.99L157.25-4.99L157.25-4.99Q159.17-8.45 160.70-18.94L160.70-18.94L160.70-18.94Q161.15-22.02 161.15-25.02L161.15-25.02L161.15-25.02Q161.15-28.03 160.48-28.99L160.48-28.99L160.48-28.99Q159.81-29.95 158.53-29.95L158.53-29.95L158.53-29.95Q154.62-29.95 153.34-22.34L153.34-22.34ZM192.58-3.52L192.58-3.52L192.58-3.52Q190.59 1.28 184.26 1.28L184.26 1.28L184.26 1.28Q181.06 1.28 179.01-0.96L179.01-0.96L179.01-0.96Q177.34-2.82 177.34-4.93L177.34-4.93L177.34-4.93Q177.34-9.73 179.58-20.22L179.58-20.22L184.26-44.80L197.25-46.08L191.04-13.70L191.04-13.70Q189.95-8.96 189.95-7.30L189.95-7.30L189.95-7.30Q189.95-3.65 192.58-3.52ZM223.94-10.82L223.94-10.82L223.94-10.82Q225.54-9.73 225.54-7.33L225.54-7.33L225.54-7.33Q225.54-4.93 224.32-3.39L224.32-3.39L224.32-3.39Q223.10-1.86 221.12-0.83L221.12-0.83L221.12-0.83Q217.02 1.28 212.61 1.28L212.61 1.28L212.61 1.28Q208.19 1.28 205.60 0.32L205.60 0.32L205.60 0.32Q203.01-0.64 201.28-2.43L201.28-2.43L201.28-2.43Q197.89-5.82 197.89-12.03L197.89-12.03L197.89-12.03Q197.89-21.70 203.14-27.58L203.14-27.58L203.14-27.58Q208.77-33.92 218.56-33.92L218.56-33.92L218.56-33.92Q224.64-33.92 227.65-31.36L227.65-31.36L227.65-31.36Q229.89-29.44 229.89-26.30L229.89-26.30L229.89-26.30Q229.89-15.04 210.43-15.04L210.43-15.04L210.43-15.04Q210.18-13.38 210.18-11.97L210.18-11.97L210.18-11.97Q210.18-9.02 211.49-7.90L211.49-7.90L211.49-7.90Q212.80-6.78 215.23-6.78L215.23-6.78L215.23-6.78Q217.66-6.78 220.26-7.90L220.26-7.90L220.26-7.90Q222.85-9.02 223.94-10.82ZM210.88-17.79L210.88-17.79L210.88-17.79Q215.42-17.79 218.05-20.61L218.05-20.61L218.05-20.61Q220.67-23.30 220.67-27.58L220.67-27.58L220.67-27.58Q220.67-29.06 220.13-29.86L220.13-29.86L220.13-29.86Q219.58-30.66 218.50-30.66L218.50-30.66L218.50-30.66Q217.41-30.66 216.48-30.24L216.48-30.24L216.48-30.24Q215.55-29.82 214.59-28.42L214.59-28.42L214.59-28.42Q212.22-25.22 210.88-17.79ZM250.37-31.17L250.37-31.17L250.37-31.17Q248.19-32.83 248.19-36.38L248.19-36.38L248.19-36.38Q248.19-39.94 250.53-41.79L250.53-41.79L250.53-41.79Q252.86-43.65 256.90-43.65L256.90-43.65L256.90-43.65Q259.46-43.65 265.54-42.75L265.54-42.75L269.89-42.11L269.89-42.11Q272.06-41.86 274.34-41.86L274.34-41.86L274.34-41.86Q276.61-41.86 278.14-42.82L278.14-42.82L278.14-42.82Q280.45-40.77 280.45-37.82L280.45-37.82L280.45-37.82Q280.45-34.88 277.82-32.77L277.82-32.77L277.82-32.77Q275.14-30.53 271.68-30.53L271.68-30.53L271.68-30.53Q270.02-30.53 267.33-30.98L267.33-30.98L267.33-30.98Q264.19-21.12 264.19-14.27L264.19-14.27L264.19-14.27Q264.19-7.42 267.65-3.84L267.65-3.84L267.65-3.84Q266.05-0.96 263.68 0.16L263.68 0.16L263.68 0.16Q261.31 1.28 257.76 1.28L257.76 1.28L257.76 1.28Q254.21 1.28 252-0.67L252-0.67L252-0.67Q249.79-2.62 249.79-6.66L249.79-6.66L249.79-6.66Q249.79-11.33 252.35-19.01L252.35-19.01L252.35-19.01Q254.91-26.62 258.75-32.45L258.75-32.45L258.75-32.45Q256.90-32.64 254.98-32.64L254.98-32.64L254.98-32.64Q251.01-32.64 250.37-31.17ZM293.76-3.52L293.76-3.52L293.76-3.52Q291.78 1.28 285.44 1.28L285.44 1.28L285.44 1.28Q282.18 1.28 280.13-0.96L280.13-0.96L280.13-0.96Q278.40-2.94 278.40-4.93L278.40-4.93L278.40-4.93Q278.40-10.11 280.77-20.22L280.77-20.22L283.14-32.64L296.13-33.92L292.22-13.70L292.22-13.70Q291.14-8.96 291.14-7.30L291.14-7.30L291.14-7.30Q291.14-3.65 293.76-3.52ZM284.29-41.54L284.29-41.54L284.29-41.54Q284.29-44.03 286.37-45.38L286.37-45.38L286.37-45.38Q288.45-46.72 291.46-46.72L291.46-46.72L291.46-46.72Q294.46-46.72 296.29-45.38L296.29-45.38L296.29-45.38Q298.11-44.03 298.11-41.54L298.11-41.54L298.11-41.54Q298.11-39.04 296.10-37.76L296.10-37.76L296.10-37.76Q294.08-36.48 291.07-36.48L291.07-36.48L291.07-36.48Q288.06-36.48 286.18-37.76L286.18-37.76L286.18-37.76Q284.29-39.04 284.29-41.54ZM300.22-6.40L300.22-6.40L300.22-6.40Q300.22-8.13 301.12-12.48L301.12-12.48L304.51-29.76L300.74-29.76L300.99-31.68L300.99-31.68Q308.67-33.98 316.10-39.62L316.10-39.62L319.17-39.62L317.63-32.64L322.62-32.64L322.05-29.76L317.12-29.76L313.86-12.48L313.86-12.48Q313.02-8.51 313.02-7.17L313.02-7.17L313.02-7.17Q313.02-4.10 315.71-3.46L315.71-3.46L315.71-3.46Q315.07-1.28 312.77 0L312.77 0L312.77 0Q310.46 1.28 307.20 1.28L307.20 1.28L307.20 1.28Q303.94 1.28 302.08-0.77L302.08-0.77L302.08-0.77Q300.22-2.82 300.22-6.40ZM337.60-3.52L337.60-3.52L337.60-3.52Q335.62 1.28 329.28 1.28L329.28 1.28L329.28 1.28Q326.08 1.28 324.03-0.96L324.03-0.96L324.03-0.96Q322.37-2.82 322.37-4.93L322.37-4.93L322.37-4.93Q322.37-9.73 324.61-20.22L324.61-20.22L329.28-44.80L342.27-46.08L336.06-13.70L336.06-13.70Q334.98-8.96 334.98-7.30L334.98-7.30L334.98-7.30Q334.98-3.65 337.60-3.52ZM368.96-10.82L368.96-10.82L368.96-10.82Q370.56-9.73 370.56-7.33L370.56-7.33L370.56-7.33Q370.56-4.93 369.34-3.39L369.34-3.39L369.34-3.39Q368.13-1.86 366.14-0.83L366.14-0.83L366.14-0.83Q362.05 1.28 357.63 1.28L357.63 1.28L357.63 1.28Q353.22 1.28 350.62 0.32L350.62 0.32L350.62 0.32Q348.03-0.64 346.30-2.43L346.30-2.43L346.30-2.43Q342.91-5.82 342.91-12.03L342.91-12.03L342.91-12.03Q342.91-21.70 348.16-27.58L348.16-27.58L348.16-27.58Q353.79-33.92 363.58-33.92L363.58-33.92L363.58-33.92Q369.66-33.92 372.67-31.36L372.67-31.36L372.67-31.36Q374.91-29.44 374.91-26.30L374.91-26.30L374.91-26.30Q374.91-15.04 355.46-15.04L355.46-15.04L355.46-15.04Q355.20-13.38 355.20-11.97L355.20-11.97L355.20-11.97Q355.20-9.02 356.51-7.90L356.51-7.90L356.51-7.90Q357.82-6.78 360.26-6.78L360.26-6.78L360.26-6.78Q362.69-6.78 365.28-7.90L365.28-7.90L365.28-7.90Q367.87-9.02 368.96-10.82ZM355.90-17.79L355.90-17.79L355.90-17.79Q360.45-17.79 363.07-20.61L363.07-20.61L363.07-20.61Q365.70-23.30 365.70-27.58L365.70-27.58L365.70-27.58Q365.70-29.06 365.15-29.86L365.15-29.86L365.15-29.86Q364.61-30.66 363.52-30.66L363.52-30.66L363.52-30.66Q362.43-30.66 361.50-30.24L361.50-30.24L361.50-30.24Q360.58-29.82 359.62-28.42L359.62-28.42L359.62-28.42Q357.25-25.22 355.90-17.79Z" fill="#ccc"></path></g></g><style>text {
  font-size: 64px;
  font-family: Arial Black;
  dominant-baseline: central;
  text-anchor: middle;
}</style></svg>